<?xml version="1.0" encoding="UTF-8"?>
<svg xmlns="http://www.w3.org/2000/svg" xmlns:xlink="http://www.w3.org/1999/xlink" width="300px" height="300px" viewBox="0 0 300 300" version="1.1">
<g id="surface1">
<path style=" stroke:none;fill-rule:nonzero;fill:rgb(0%,0%,0%);fill-opacity:1;" d="M 174.316406 1.640625 C 156.5625 7.207031 144.316406 16.289062 136.054688 29.941406 C 131.015625 38.144531 129.082031 45.234375 129.785156 52.441406 C 130.664062 61.992188 133.59375 71.484375 138.691406 81.679688 L 141.855469 88.066406 L 140.449219 90.175781 C 139.6875 91.347656 132.421875 106.289062 124.335938 123.339844 C 111.5625 150.292969 109.511719 155.039062 108.808594 159.082031 C 108.339844 161.660156 107.695312 164.414062 107.34375 165.234375 C 105.996094 168.222656 76.757812 284.648438 76.757812 286.875 C 76.757812 289.453125 78.574219 293.789062 80.449219 295.78125 C 82.324219 297.832031 85.78125 299.414062 89.121094 299.824219 C 94.277344 300.410156 100.078125 297.246094 102.1875 292.558594 C 102.714844 291.328125 108.925781 267.65625 116.015625 240 C 123.046875 212.402344 128.90625 189.667969 129.023438 189.550781 C 129.257812 189.316406 136.464844 191.015625 137.636719 191.542969 C 138.222656 191.835938 142.148438 207.890625 149.707031 240.9375 C 155.917969 267.890625 161.308594 290.800781 161.71875 291.855469 C 162.1875 292.851562 163.183594 294.492188 163.945312 295.429688 C 168.632812 300.996094 178.769531 301.171875 183.808594 295.78125 C 185.742188 293.730469 187.5 289.453125 187.5 286.816406 C 187.5 285.527344 182.519531 262.851562 176.425781 236.425781 L 165.410156 188.378906 L 168.398438 188.085938 C 176.25 187.207031 193.183594 174.316406 199.511719 164.355469 C 209.648438 148.476562 209.355469 128.671875 198.808594 107.519531 C 195.820312 101.542969 189.433594 91.757812 187.207031 89.648438 C 185.214844 87.773438 185.332031 87.304688 187.617188 87.949219 C 190.546875 88.769531 197.402344 88.59375 201.269531 87.597656 C 216.5625 83.613281 226.230469 67.617188 222.363281 52.617188 C 219.375 41.132812 210.46875 32.519531 199.570312 30.527344 C 189.140625 28.59375 180.644531 31.289062 173.144531 38.90625 C 166.992188 45.117188 164.707031 50.625 164.648438 59.179688 C 164.648438 70.371094 170.273438 79.6875 180.761719 85.898438 C 181.699219 86.367188 181.347656 86.660156 178.476562 87.773438 C 176.601562 88.476562 174.726562 89.0625 174.316406 89.0625 C 173.90625 89.0625 172.851562 87.011719 171.972656 84.433594 C 170.214844 79.453125 169.746094 79.101562 165.175781 79.101562 C 163.886719 79.101562 163.183594 78.632812 162.070312 76.875 C 155.742188 66.796875 151.347656 52.617188 152.929688 47.226562 C 155.097656 39.785156 163.125 31.464844 172.5 26.953125 C 175.78125 25.371094 180.117188 23.671875 182.226562 23.144531 C 187.265625 21.855469 189.550781 20.390625 191.425781 17.109375 C 194.472656 11.894531 192.832031 4.863281 187.792969 1.757812 C 184.570312 -0.234375 180.46875 -0.292969 174.316406 1.640625 Z M 183.808594 142.148438 C 183.339844 146.425781 180.703125 151.933594 177.304688 155.566406 L 174.609375 158.496094 L 176.601562 154.101562 C 181.171875 143.964844 183.632812 138.867188 183.867188 138.867188 C 184.042969 138.867188 183.984375 140.332031 183.808594 142.148438 Z M 183.808594 142.148438 "/>
</g>
</svg>
