<?xml version="1.0" encoding="UTF-8"?>
<svg xmlns="http://www.w3.org/2000/svg" xmlns:xlink="http://www.w3.org/1999/xlink" width="300px" height="300px" viewBox="0 0 300 300" version="1.1">
<g id="surface1">
<path style=" stroke:none;fill-rule:nonzero;fill:rgb(0%,0%,0%);fill-opacity:1;" d="M 154.8125 1.128906 C 148.921875 3.152344 144.753906 7.007812 142.027344 13.007812 C 140.375 16.628906 140.300781 16.863281 140.15625 20.949219 C 139.871094 28.621094 141.738281 33.761719 146.550781 38.667969 C 151.257812 43.457031 154.273438 44.546875 161.996094 44.316406 L 166.488281 44.199219 L 169.539062 42.445312 C 173.742188 40.070312 176.867188 36.605469 178.949219 32.046875 L 180.496094 28.660156 L 180.496094 16.121094 L 179.128906 13.125 C 177.335938 9.230469 173.167969 4.515625 169.863281 2.765625 C 165.480469 0.429688 158.871094 -0.273438 154.8125 1.128906 Z M 154.8125 1.128906 "/>
<path style=" stroke:none;fill-rule:nonzero;fill:rgb(0%,0%,0%);fill-opacity:1;" d="M 97.523438 26.871094 C 91.054688 28.347656 65.050781 36.914062 58.980469 39.5625 C 57.253906 40.34375 55.386719 41.277344 54.777344 41.667969 C 52.226562 43.378906 49.929688 46.882812 49.929688 49.105469 C 49.929688 50.351562 50.898438 52.296875 51.976562 53.117188 C 53.269531 54.128906 56.753906 54.828125 59.804688 54.632812 C 62.429688 54.476562 79.527344 52.453125 91.59375 50.816406 L 98.597656 49.921875 L 100.753906 51.324219 C 106.898438 55.296875 113.148438 60.085938 113.148438 60.746094 C 113.148438 60.941406 107.613281 70.09375 100.863281 81.074219 C 82.148438 111.566406 80.351562 114.71875 79.058594 119.277344 C 77.441406 125 77.730469 129.324219 80.027344 134.074219 C 81.824219 137.890625 84.664062 140.730469 90.769531 145.054688 C 100.96875 152.335938 106.679688 156.855469 121.371094 169.355469 L 130.171875 176.832031 L 141.808594 191.511719 C 156.140625 209.578125 165.625 221.222656 169.179688 225.117188 C 171.40625 227.570312 172.164062 228.152344 173.636719 228.542969 C 176.542969 229.324219 179.417969 228.425781 182.113281 225.972656 C 184.699219 223.636719 185.488281 218.378906 183.726562 214.835938 C 182.363281 212.03125 156.179688 167.484375 151.148438 159.347656 C 149.570312 156.777344 148.203125 155.492188 135.847656 144.820312 C 121.984375 132.789062 118.894531 129.90625 118.894531 128.972656 C 118.894531 128.347656 135.738281 98.910156 140.15625 91.863281 C 141.703125 89.371094 143.210938 87.070312 143.535156 86.800781 C 144.253906 86.175781 144.863281 86.875 154.707031 99.144531 C 164.90625 111.875 167.347656 114.097656 171.121094 114.097656 C 173.347656 114.097656 179.527344 112.1875 192.0625 107.671875 C 209.410156 101.402344 214.835938 98.753906 217.242188 95.445312 C 218.679688 93.378906 218.714844 91.976562 217.421875 89.175781 C 216.128906 86.449219 214.222656 85.28125 211.0625 85.28125 C 209.734375 85.28125 202.65625 86.644531 193.140625 88.746094 L 177.40625 92.171875 L 173.5625 87.460938 C 169.828125 82.90625 163.613281 75.039062 155.855469 65.070312 L 152.121094 60.242188 L 137.210938 49.53125 C 117.601562 35.476562 106.5 27.726562 104.742188 26.832031 C 102.910156 25.933594 101.617188 25.933594 97.523438 26.871094 Z M 97.523438 26.871094 "/>
<path style=" stroke:none;fill-rule:nonzero;fill:rgb(0%,0%,0%);fill-opacity:1;" d="M 290.515625 57.789062 C 288.683594 58.488281 284.125 63.199219 271.121094 77.6875 L 259.914062 90.148438 L 256.679688 91.394531 C 254.886719 92.09375 247.988281 94.390625 241.378906 96.574219 C 227.515625 101.089844 216.738281 104.90625 214.546875 105.996094 C 211.925781 107.320312 210.453125 111.800781 211.675781 114.71875 C 212.894531 117.796875 215.410156 119.9375 217.707031 119.9375 C 219.144531 119.9375 225.863281 117.992188 237.96875 114.097656 C 246.875 111.253906 252.191406 109.695312 252.335938 109.890625 C 252.585938 110.242188 218.679688 209.617188 208.691406 237.734375 C 207.472656 241.160156 206.214844 244.703125 205.925781 245.636719 C 205.601562 246.652344 205.066406 247.46875 204.597656 247.664062 C 204.167969 247.820312 200.574219 248.363281 196.625 248.792969 C 192.707031 249.261719 185.847656 250.078125 181.394531 250.585938 C 165.445312 252.453125 152.082031 253.972656 114.582031 258.175781 C 104.992188 259.269531 94.109375 260.476562 90.335938 260.902344 C 53.125 265.03125 30.171875 267.835938 26.832031 268.652344 C 23.851562 269.429688 20.367188 273.167969 19.144531 276.945312 C 18.714844 278.308594 18.5 280.101562 18.535156 282.125 C 18.535156 284.8125 18.679688 285.59375 19.683594 287.8125 C 20.90625 290.617188 23.097656 293.070312 25.46875 294.355469 C 27.980469 295.753906 30.675781 295.910156 38.21875 295.132812 C 59.878906 292.835938 72.054688 291.550781 77.945312 290.886719 C 81.609375 290.460938 87.03125 289.875 89.976562 289.5625 C 96.050781 288.902344 113.828125 286.914062 132.003906 284.851562 C 138.722656 284.074219 146.480469 283.214844 149.246094 282.90625 C 165.515625 281.074219 182.792969 279.167969 186.0625 278.816406 C 199.820312 277.296875 215.085938 275.546875 224.605469 274.375 C 234.195312 273.167969 235.957031 272.859375 237.789062 271.960938 C 240.410156 270.714844 242.851562 267.992188 244.179688 264.875 C 245.007812 262.96875 245.152344 262.148438 245.152344 259.152344 C 245.113281 256.152344 244.972656 255.375 244.179688 253.699219 C 242.707031 250.585938 240.195312 247.859375 237.570312 246.457031 L 235.273438 245.210938 L 228.484375 245.484375 L 221.695312 245.753906 L 224.351562 237.851562 C 225.824219 233.488281 229.707031 222.234375 232.9375 212.8125 C 236.171875 203.386719 241.09375 189.019531 243.894531 180.878906 C 246.695312 172.742188 251.363281 159.074219 254.308594 150.507812 C 257.253906 141.9375 261.925781 128.269531 264.691406 120.132812 C 267.492188 111.992188 269.972656 104.90625 270.222656 104.363281 C 270.582031 103.621094 271.371094 103.191406 274.066406 102.296875 C 283.585938 99.222656 292.097656 96.066406 293.570312 95.015625 C 295.652344 93.574219 296.480469 91.9375 296.480469 89.175781 C 296.480469 85.398438 293.964844 81.855469 290.769531 81.230469 C 290.085938 81.074219 289.511719 80.800781 289.511719 80.609375 C 289.511719 80.414062 291.523438 77.84375 293.964844 74.960938 C 298.347656 69.742188 299.929688 67.25 299.929688 65.460938 C 299.929688 62.109375 297.378906 58.488281 294.46875 57.710938 C 292.421875 57.125 292.167969 57.164062 290.515625 57.789062 Z M 290.515625 57.789062 "/>
<path style=" stroke:none;fill-rule:nonzero;fill:rgb(0%,0%,0%);fill-opacity:1;" d="M 64.007812 150.46875 C 60.992188 155.0625 58.296875 158.996094 58.046875 159.230469 C 57.328125 159.890625 53.554688 160.320312 39.691406 161.371094 C 13.722656 163.394531 8.511719 163.980469 5.746094 165.34375 C 0.933594 167.71875 -1.113281 172.3125 0.683594 176.675781 C 2.800781 181.660156 9.625 182.75 47.523438 184.230469 C 59.878906 184.695312 67.886719 184.539062 70.113281 183.800781 C 73.132812 182.828125 75.289062 180.21875 83.332031 167.835938 C 85.488281 164.484375 87.355469 161.488281 87.464844 161.175781 C 87.609375 160.746094 86.351562 159.5 83.082031 156.855469 C 77.765625 152.570312 73.382812 148.054688 71.15625 144.546875 C 70.292969 143.222656 69.574219 142.132812 69.539062 142.132812 C 69.503906 142.132812 67.027344 145.871094 64.007812 150.46875 Z M 64.007812 150.46875 "/>
<path style=" stroke:none;fill-rule:nonzero;fill:rgb(0%,0%,0%);fill-opacity:1;" d="M 158.40625 291.472656 L 158.40625 299.453125 L 240.660156 299.453125 L 240.660156 283.488281 L 158.40625 283.488281 Z M 158.40625 291.472656 "/>
</g>
</svg>
