<?xml version="1.0" encoding="UTF-8"?>
<svg xmlns="http://www.w3.org/2000/svg" xmlns:xlink="http://www.w3.org/1999/xlink" width="300px" height="300px" viewBox="0 0 300 300" version="1.1">
<g id="surface1">
<path style=" stroke:none;fill-rule:nonzero;fill:rgb(0%,0%,0%);fill-opacity:1;" d="M 71.191406 75.820312 C 69.023438 76.816406 67.089844 78.867188 66.269531 81.035156 C 65.859375 82.03125 65.625 88.417969 65.625 97.558594 L 65.625 112.382812 L 59.238281 112.617188 C 52.324219 112.792969 50.976562 113.320312 48.398438 116.835938 C 47.167969 118.417969 47.167969 119.0625 47.167969 150 C 47.167969 180.9375 47.167969 181.582031 48.398438 183.164062 C 50.976562 186.679688 52.324219 187.207031 59.179688 187.382812 L 65.566406 187.617188 L 65.742188 203.320312 C 65.917969 218.144531 65.976562 219.140625 67.148438 220.664062 C 69.902344 224.414062 70.839844 224.707031 79.6875 224.707031 C 88.535156 224.707031 89.472656 224.414062 92.226562 220.664062 C 93.457031 219.082031 93.457031 218.847656 93.457031 150 C 93.457031 81.152344 93.457031 80.917969 92.226562 79.335938 C 89.53125 75.703125 88.417969 75.292969 80.390625 75.117188 C 75.058594 75.058594 72.480469 75.234375 71.191406 75.820312 Z M 71.191406 75.820312 "/>
<path style=" stroke:none;fill-rule:nonzero;fill:rgb(0%,0%,0%);fill-opacity:1;" d="M 211.816406 75.820312 C 209.414062 76.875 206.953125 79.863281 206.542969 82.207031 C 206.367188 83.261719 206.308594 114.433594 206.367188 151.582031 C 206.542969 218.671875 206.542969 219.082031 207.773438 220.664062 C 210.527344 224.414062 211.464844 224.707031 220.3125 224.707031 C 229.160156 224.707031 230.097656 224.414062 232.851562 220.664062 C 234.023438 219.140625 234.082031 218.144531 234.257812 203.320312 L 234.433594 187.617188 L 240.820312 187.382812 C 247.675781 187.207031 249.023438 186.679688 251.601562 183.164062 C 252.832031 181.582031 252.832031 180.9375 252.832031 150 C 252.832031 119.0625 252.832031 118.417969 251.601562 116.835938 C 249.023438 113.320312 247.675781 112.792969 240.820312 112.617188 L 234.433594 112.382812 L 234.257812 96.679688 C 234.082031 81.855469 234.023438 80.859375 232.851562 79.335938 C 230.15625 75.703125 229.042969 75.292969 221.015625 75.117188 C 215.683594 75.058594 213.046875 75.234375 211.816406 75.820312 Z M 211.816406 75.820312 "/>
<path style=" stroke:none;fill-rule:nonzero;fill:rgb(0%,0%,0%);fill-opacity:1;" d="M 29.882812 134.296875 C 25.078125 136.757812 24.902344 137.402344 24.902344 150 C 24.902344 160.253906 25.019531 161.191406 26.132812 162.714844 C 27.773438 165 31.933594 166.992188 34.980469 166.992188 L 37.5 166.992188 L 37.5 133.007812 L 34.980469 133.007812 C 33.515625 133.007812 31.40625 133.59375 29.882812 134.296875 Z M 29.882812 134.296875 "/>
<path style=" stroke:none;fill-rule:nonzero;fill:rgb(0%,0%,0%);fill-opacity:1;" d="M 103.125 150 L 103.125 166.992188 L 196.875 166.992188 L 196.875 133.007812 L 103.125 133.007812 Z M 103.125 150 "/>
<path style=" stroke:none;fill-rule:nonzero;fill:rgb(0%,0%,0%);fill-opacity:1;" d="M 262.5 150 L 262.5 166.992188 L 265.019531 166.992188 C 268.066406 166.992188 272.226562 165 273.867188 162.714844 C 274.980469 161.191406 275.097656 160.253906 275.097656 150 C 275.097656 139.746094 274.980469 138.808594 273.867188 137.285156 C 272.226562 135 268.066406 133.007812 265.019531 133.007812 L 262.5 133.007812 Z M 262.5 150 "/>
</g>
</svg>
